<?xml version="1.0" standalone="no"?>
<svg xmlns:xlink="http://www.w3.org/1999/xlink" id="wave" style="transform:rotate(180deg); transition: 0.3s" viewBox="0 0 1440 150" version="1.1" xmlns="http://www.w3.org/2000/svg"><path style="transform:translate(0, 0px); opacity:1" fill=" black" d="M0,105L26.7,102.5C53.3,100,107,95,160,80C213.3,65,267,40,320,42.5C373.3,45,427,75,480,92.5C533.3,110,587,115,640,102.5C693.3,90,747,60,800,62.5C853.3,65,907,100,960,100C1013.3,100,1067,65,1120,42.5C1173.3,20,1227,10,1280,15C1333.3,20,1387,40,1440,62.5C1493.3,85,1547,110,1600,120C1653.3,130,1707,125,1760,115C1813.3,105,1867,90,1920,77.5C1973.3,65,2027,55,2080,42.5C2133.3,30,2187,15,2240,10C2293.3,5,2347,10,2400,15C2453.3,20,2507,25,2560,32.5C2613.3,40,2667,50,2720,67.5C2773.3,85,2827,110,2880,115C2933.3,120,2987,105,3040,100C3093.3,95,3147,100,3200,97.5C3253.3,95,3307,85,3360,70C3413.3,55,3467,35,3520,30C3573.3,25,3627,35,3680,45C3733.3,55,3787,65,3813,70L3840,75L3840,150L3813.3,150C3786.7,150,3733,150,3680,150C3626.7,150,3573,150,3520,150C3466.7,150,3413,150,3360,150C3306.7,150,3253,150,3200,150C3146.7,150,3093,150,3040,150C2986.7,150,2933,150,2880,150C2826.7,150,2773,150,2720,150C2666.7,150,2613,150,2560,150C2506.7,150,2453,150,2400,150C2346.7,150,2293,150,2240,150C2186.7,150,2133,150,2080,150C2026.7,150,1973,150,1920,150C1866.7,150,1813,150,1760,150C1706.7,150,1653,150,1600,150C1546.7,150,1493,150,1440,150C1386.7,150,1333,150,1280,150C1226.7,150,1173,150,1120,150C1066.7,150,1013,150,960,150C906.7,150,853,150,800,150C746.7,150,693,150,640,150C586.7,150,533,150,480,150C426.7,150,373,150,320,150C266.7,150,213,150,160,150C106.7,150,53,150,27,150L0,150Z"/></svg>